<svg width="13" height="13" viewBox="0 0 13 13" fill="none" xmlns="http://www.w3.org/2000/svg">
<g clip-path="url(#clip0)">
<path d="M6.11304 0C2.74283 0 0.000946045 2.74182 0.000946045 6.11197C0.000946045 9.48236 2.74283 12.2243 6.11304 12.2243C9.48319 12.2243 12.225 9.4823 12.225 6.11197C12.225 2.74182 9.48319 0 6.11304 0ZM6.11304 11.3481C3.22595 11.3481 0.877114 8.99918 0.877114 6.11197C0.877114 3.22494 3.22595 0.876168 6.11304 0.876168C9.00007 0.876168 11.3488 3.22494 11.3488 6.11197C11.3488 8.99918 9.00007 11.3481 6.11304 11.3481Z" fill="#F7F7F7"/>
<path d="M9.25496 6.00969H6.38265V2.86997C6.38265 2.62803 6.18657 2.43188 5.94457 2.43188C5.70263 2.43188 5.50648 2.62803 5.50648 2.86997V6.44777C5.50648 6.68971 5.70263 6.88586 5.94457 6.88586H9.25496C9.49696 6.88586 9.69305 6.68971 9.69305 6.44777C9.69305 6.20583 9.4969 6.00969 9.25496 6.00969Z" fill="#F7F7F7"/>
</g>
<defs>
<clipPath id="clip0">
<rect width="12.2243" height="12.2243" fill="white"/>
</clipPath>
</defs>
</svg>
