<svg width="30" height="29" viewBox="0 0 30 29" fill="none" xmlns="http://www.w3.org/2000/svg">
<path d="M9.28824 9.66398C9.31607 11.1994 9.91733 12.6458 10.9813 13.7365C12.0453 14.8271 13.4497 15.437 14.936 15.4538C15.6288 15.4618 16.3106 15.3422 16.9564 15.0987C17.1845 15.0128 17.3019 14.7522 17.2188 14.5166C17.1357 14.281 16.8835 14.1595 16.6555 14.2455C16.1091 14.4513 15.5354 14.5531 14.9456 14.5457C12.359 14.5164 10.2153 12.3189 10.1668 9.64334C10.1317 8.28382 10.6659 6.94682 11.6322 5.97514C12.5988 5.00323 13.9073 4.48848 15.2252 4.56143C17.7445 4.67937 19.768 6.81398 19.832 9.42108C19.8469 10.0288 19.7577 10.6246 19.5669 11.1918C19.4402 11.5685 19.0925 11.8215 18.7016 11.8215C18.7016 11.8215 18.7015 11.8215 18.7015 11.8215C18.195 11.8215 17.7829 11.3957 17.7829 10.8722V7.1293C17.7829 6.87846 17.5862 6.67522 17.3435 6.67522C17.1007 6.67522 16.904 6.87846 16.904 7.1293V7.4566C16.4058 6.97261 15.736 6.67522 14.9998 6.67522C13.4653 6.67522 12.2167 7.96535 12.2167 9.55107C12.2167 11.1368 13.4653 12.4269 14.9998 12.4269C15.7945 12.4269 16.5119 12.0804 17.0195 11.5266C17.2762 12.2288 17.9331 12.7297 18.7014 12.7297H18.7016C19.4662 12.7297 20.1476 12.2315 20.397 11.4901C20.6228 10.8193 20.7282 10.1155 20.7106 9.39801C20.6351 6.31661 18.2431 3.79367 15.2689 3.65442C13.7105 3.56736 12.1613 4.17601 11.0194 5.32429C9.87767 6.47221 9.24676 8.05532 9.28824 9.66398ZM14.9999 11.5188C13.9499 11.5188 13.0957 10.6361 13.0957 9.55107C13.0957 8.46606 13.9499 7.58338 14.9999 7.58338C16.0499 7.58338 16.9041 8.46606 16.9041 9.55107C16.9041 10.6361 16.0499 11.5188 14.9999 11.5188Z" fill="#414141"/>
<path d="M29.83 11.0556L17.5094 1.10773C16.0843 -0.0427964 14.0891 -0.0489113 12.6575 1.09307L0.17208 11.0532C0.0649748 11.1379 -0.000120062 11.2741 0.000114303 11.4135V15.4094C0.000114303 15.6602 0.196805 15.8635 0.439549 15.8635C0.682292 15.8635 0.878983 15.6602 0.878983 15.4094V12.1872L11.9294 18.5658L0.878983 27.3811V17.5284C0.878983 17.2776 0.682292 17.0743 0.439549 17.0743C0.196805 17.0743 0.000114303 17.2776 0.000114303 17.5284V28.3053C-0.00375272 28.5491 0.203484 28.7636 0.439549 28.7594H29.5594C29.7938 28.7627 30.0037 28.5489 29.9988 28.3053V11.4671C30.0094 11.3113 29.9518 11.1519 29.83 11.0556ZM1.72785 27.8512L13.1946 18.7038C14.3081 17.8156 15.8599 17.8202 16.9683 18.7152L17.1799 18.8861C17.1801 18.8862 22.6888 23.334 22.6892 23.3344C22.8806 23.4888 23.1566 23.4538 23.3061 23.2562C23.4555 23.0585 23.4216 22.7731 23.2304 22.6187L18.2367 18.5868L20.9385 17.0139C21.1499 16.8908 21.2248 16.614 21.1057 16.3954C20.9866 16.1769 20.7187 16.0998 20.5071 16.2227L17.486 17.9814C16.0722 16.857 14.1084 16.8496 12.6868 17.9626L1.2351 11.3524L13.1947 1.81186C14.3082 0.923672 15.8599 0.928334 16.9683 1.8233L28.8132 11.3871L22.2428 15.2121C22.0314 15.3352 21.9565 15.6121 22.0757 15.8306C22.1955 16.0512 22.4666 16.1252 22.6742 16.0034L29.12 12.2509V27.3741L24.8001 23.8862C24.6089 23.7319 24.3328 23.7667 24.1833 23.9644C24.0339 24.1621 24.0678 24.4474 24.259 24.6018L28.2833 27.8512H1.72785V27.8512Z" fill="#414141"/>
</svg>
