<svg width="32" height="28" viewBox="0 0 32 28" fill="none" xmlns="http://www.w3.org/2000/svg">
<g clip-path="url(#clip0)">
<path d="M29.6085 14.1675L15.5451 0.936601C15.5206 0.910735 15.496 0.891335 15.4652 0.871934C15.1579 0.561533 14.6662 0.548599 14.3404 0.852534L0.277092 14.0834C-0.0671154 14.4067 -0.0917016 14.9564 0.20948 15.3185C0.375437 15.5125 0.602859 15.6095 0.830282 15.6095C1.02697 15.6095 1.22366 15.5384 1.38347 15.3897L3.91585 13.0035V13.4691V20.3755V28.433C3.91585 29.6423 4.85013 30.6317 6.00568 30.6317C6.02412 30.6317 6.03642 30.6317 6.05485 30.6317C6.07329 30.6317 6.08559 30.6317 6.10403 30.6317H10.4435C11.5253 30.6317 12.4042 29.707 12.4042 28.5688V20.7247C12.4042 20.5501 12.5395 20.4078 12.7054 20.4078H17.1863C17.3522 20.4078 17.4874 20.5501 17.4874 20.7247V28.5688C17.4874 29.707 18.3664 30.6317 19.4482 30.6317H23.886C25.0539 30.6317 25.9758 29.4224 25.9758 27.8769V20.6859V18.4872V13.0875L28.5082 15.4737C28.668 15.6225 28.8647 15.6936 29.0614 15.6936C29.2888 15.6936 29.5163 15.5966 29.6822 15.4026C29.9772 15.0405 29.9465 14.4908 29.6085 14.1675ZM24.3101 18.4808V20.6794V27.864C24.3101 28.4912 24.0151 28.8728 23.8799 28.8728H19.4421C19.2761 28.8728 19.1409 28.7305 19.1409 28.5559V20.7247C19.1409 19.5866 18.2619 18.6618 17.1801 18.6618H12.6993C11.6175 18.6618 10.7385 19.5866 10.7385 20.7247V28.5688C10.7385 28.7434 10.6033 28.8857 10.4373 28.8857H6.09788C6.07944 28.8857 6.06715 28.8857 6.04871 28.8857C6.03027 28.8857 6.01798 28.8857 5.99954 28.8857C5.76597 28.8857 5.56928 28.6852 5.56928 28.433V20.369V13.4626V11.4385L14.8997 2.66968L24.3101 11.5226V18.4808Z" fill="#656363"/>
</g>
<defs>
<clipPath id="clip0">
<rect width="32" height="27.5676" fill="white"/>
</clipPath>
</defs>
</svg>
