<svg width="30" height="31" viewBox="0 0 30 31" fill="none" xmlns="http://www.w3.org/2000/svg">
<path d="M29.9986 24.5992C29.9983 24.5948 29.9984 24.5905 29.9979 24.5861C29.9964 24.5687 29.9938 24.5517 29.9903 24.535C29.9899 24.5333 29.9894 24.5317 29.989 24.53C29.9855 24.5147 29.9812 24.4997 29.9762 24.485C29.9749 24.4811 29.9734 24.4773 29.9719 24.4734C29.967 24.4601 29.9614 24.4472 29.9553 24.4346C29.9542 24.4324 29.9535 24.4301 29.9524 24.4278L27.6021 19.792V4.54005C27.6021 4.07095 27.2205 3.68933 26.7514 3.68933H3.2485C2.77939 3.68933 2.39777 4.07095 2.39777 4.54005V19.7919L0.0475195 24.4278C0.0464063 24.43 0.0457031 24.4323 0.0446484 24.4345C0.0384961 24.4471 0.0329883 24.4601 0.0280078 24.4733C0.026543 24.4772 0.0250781 24.481 0.0237305 24.485C0.01875 24.4997 0.0144141 24.5147 0.010957 24.5301C0.0106055 24.5317 0.0100781 24.5333 0.00972656 24.5348C0.00615234 24.5516 0.00363281 24.5686 0.00205078 24.586C0.00164062 24.5904 0.00164063 24.5948 0.00140625 24.5991C0.000820313 24.6083 0 24.6173 0 24.6265V25.7413C0 26.2985 0.453223 26.7517 1.01039 26.7517H28.9896C29.5468 26.7517 30 26.2985 30 25.7413V24.6265C30 24.6173 29.9992 24.6083 29.9986 24.5992ZM3.27674 4.56836H26.7233V19.4576H3.27674V4.56836ZM3.10717 20.3364H26.8928L28.845 24.187H19.1899L18.7053 22.4299C18.6066 22.0721 18.2786 21.8223 17.9075 21.8223H12.0923C11.7213 21.8223 11.3932 22.0721 11.2946 22.4298L10.81 24.187H1.15494L3.10717 20.3364ZM18.2782 24.1871H11.7218L12.1315 22.7013H17.8685L18.2782 24.1871ZM29.1211 25.7413C29.1211 25.8138 29.0621 25.8728 28.9896 25.8728H1.01039C0.93791 25.8728 0.878906 25.8138 0.878906 25.7413V25.0659H29.1211V25.7413Z" fill="#414141"/>
<path d="M25.3463 12.7453C25.1035 12.7453 24.9068 12.942 24.9068 13.1848V17.6411H5.09314V13.1848C5.09314 12.942 4.89644 12.7453 4.65369 12.7453C4.41093 12.7453 4.21423 12.942 4.21423 13.1848V17.8309C4.21423 18.2109 4.52332 18.52 4.90335 18.52H25.0967C25.4767 18.52 25.7858 18.2109 25.7858 17.8309V13.1848C25.7858 12.9421 25.5891 12.7453 25.3463 12.7453Z" fill="#414141"/>
<path d="M25.0966 5.50586H4.90335C4.52337 5.50586 4.21423 5.81494 4.21423 6.19498V10.8411C4.21423 11.0839 4.41093 11.2806 4.65369 11.2806C4.89644 11.2806 5.09314 11.0839 5.09314 10.8411V6.38477H24.9068V10.8411C24.9068 11.0839 25.1035 11.2806 25.3463 11.2806C25.589 11.2806 25.7857 11.0839 25.7857 10.8411V6.19498C25.7857 5.81488 25.4767 5.50586 25.0966 5.50586Z" fill="#414141"/>
</svg>
