<svg width="35" height="35" viewBox="0 0 35 35" fill="none" xmlns="http://www.w3.org/2000/svg">
<path d="M26.6113 4.35431C23.7812 1.89929 20.0212 0.546875 16.0254 0.546875C12.0295 0.546875 8.26958 1.89929 5.4395 4.35431C2.59323 6.82385 1.02539 10.1111 1.02539 13.6113C1.02539 16.3905 2.00879 19.0343 3.87228 21.2709L2.15444 29.9715C2.13689 30.06 2.14515 30.1516 2.17827 30.2358C2.21139 30.32 2.26807 30.3935 2.3419 30.4481C2.41574 30.5027 2.5038 30.5361 2.59616 30.5447C2.68851 30.5532 2.78149 30.5365 2.8646 30.4965L11.8634 26.1659C13.223 26.5061 14.6214 26.6774 16.0254 26.6758C20.0212 26.6758 23.7812 25.3233 26.6113 22.8683C29.4575 20.3988 31.0254 17.1115 31.0254 13.6113C31.0254 10.1111 29.4575 6.82385 26.6113 4.35431ZM16.0254 25.708C14.6458 25.7097 13.272 25.5338 11.9399 25.1848C11.8227 25.1538 11.6978 25.1657 11.5889 25.2181L3.32145 29.1967L4.89427 21.2304C4.90814 21.1598 4.90568 21.0871 4.88706 21.0175C4.86843 20.948 4.83412 20.8833 4.78659 20.8282C2.97726 18.7306 2.02124 16.2351 2.02124 13.6113C2.02124 6.94119 8.30319 1.51461 16.0254 1.51461C23.7476 1.51461 30.0295 6.94119 30.0295 13.6113C30.0295 20.2814 23.7476 25.708 16.0254 25.708Z" fill="#414141"/>
<path d="M16.0877 15.0629C15.7922 15.0629 15.5034 14.9778 15.2578 14.8183C15.0121 14.6588 14.8206 14.4321 14.7076 14.1668C14.5945 13.9016 14.5649 13.6097 14.6226 13.3281C14.6802 13.0465 14.8225 12.7879 15.0314 12.5849C15.2403 12.3819 15.5065 12.2436 15.7962 12.1876C16.086 12.1316 16.3863 12.1603 16.6593 12.2702C16.9323 12.3801 17.1655 12.5661 17.3297 12.8048C17.4938 13.0436 17.5814 13.3242 17.5814 13.6113C17.581 13.9962 17.4234 14.3651 17.1434 14.6372C16.8634 14.9094 16.4837 15.0625 16.0877 15.0629ZM16.0877 13.1274C15.9892 13.1274 15.8929 13.1558 15.811 13.209C15.7291 13.2621 15.6653 13.3377 15.6276 13.4261C15.5899 13.5146 15.5801 13.6118 15.5993 13.7057C15.6185 13.7996 15.6659 13.8858 15.7356 13.9535C15.8052 14.0211 15.8939 14.0672 15.9905 14.0859C16.0871 14.1045 16.1872 14.095 16.2782 14.0583C16.3692 14.0217 16.447 13.9597 16.5017 13.8801C16.5564 13.8006 16.5856 13.707 16.5856 13.6113C16.5854 13.483 16.5329 13.36 16.4396 13.2693C16.3462 13.1786 16.2197 13.1276 16.0877 13.1274Z" fill="#414141"/>
<path d="M11.1084 15.0629C10.813 15.0629 10.5242 14.9778 10.2785 14.8183C10.0329 14.6588 9.84139 14.4321 9.72833 14.1668C9.61527 13.9016 9.58569 13.6097 9.64333 13.3281C9.70096 13.0465 9.84323 12.7879 10.0521 12.5849C10.261 12.3819 10.5272 12.2436 10.817 12.1876C11.1067 12.1316 11.4071 12.1603 11.68 12.2702C11.953 12.3801 12.1863 12.5661 12.3504 12.8048C12.5146 13.0436 12.6022 13.3242 12.6022 13.6113C12.6017 13.9962 12.4442 14.3651 12.1641 14.6372C11.8841 14.9094 11.5044 15.0625 11.1084 15.0629ZM11.1084 13.1274C11.0099 13.1274 10.9137 13.1558 10.8318 13.209C10.7499 13.2621 10.6861 13.3377 10.6484 13.4261C10.6107 13.5146 10.6008 13.6118 10.62 13.7057C10.6393 13.7996 10.6867 13.8858 10.7563 13.9535C10.8259 14.0211 10.9147 14.0672 11.0113 14.0859C11.1078 14.1045 11.208 14.095 11.2989 14.0583C11.3899 14.0217 11.4677 13.9597 11.5224 13.8801C11.5771 13.8006 11.6063 13.707 11.6063 13.6113C11.6062 13.483 11.5537 13.36 11.4603 13.2693C11.367 13.1786 11.2404 13.1276 11.1084 13.1274Z" fill="#414141"/>
<path d="M21.0669 12.1597C20.7715 12.1597 20.4827 12.2448 20.237 12.4044C19.9914 12.5639 19.7999 12.7906 19.6868 13.0558C19.5738 13.3211 19.5442 13.6129 19.6018 13.8945C19.6595 14.1761 19.8017 14.4347 20.0106 14.6378C20.2195 14.8408 20.4857 14.979 20.7755 15.035C21.0652 15.091 21.3656 15.0623 21.6385 14.9524C21.9115 14.8426 22.1448 14.6565 22.3089 14.4178C22.4731 14.1791 22.5607 13.8984 22.5607 13.6113C22.5602 13.2265 22.4026 12.8576 22.1226 12.5854C21.8426 12.3133 21.4629 12.1602 21.0669 12.1597ZM21.0669 14.0952C20.9684 14.0952 20.8722 14.0668 20.7903 14.0136C20.7084 13.9605 20.6446 13.8849 20.6069 13.7965C20.5692 13.7081 20.5593 13.6108 20.5785 13.5169C20.5978 13.4231 20.6452 13.3368 20.7148 13.2692C20.7844 13.2015 20.8732 13.1554 20.9698 13.1367C21.0663 13.1181 21.1665 13.1277 21.2574 13.1643C21.3484 13.2009 21.4262 13.2629 21.4809 13.3425C21.5356 13.4221 21.5648 13.5156 21.5648 13.6113C21.5646 13.7396 21.5121 13.8626 21.4188 13.9533C21.3254 14.044 21.1989 14.095 21.0669 14.0952Z" fill="#414141"/>
</svg>
