<svg width="30" height="32" viewBox="0 0 30 32" fill="none" xmlns="http://www.w3.org/2000/svg">
<path d="M16.2499 24C16.2499 24.7363 15.6903 25.3333 15 25.3333C14.3097 25.3333 13.7501 24.7363 13.7501 24C13.7501 23.2637 14.3097 22.6667 15 22.6667C15.6903 22.6667 16.2499 23.2637 16.2499 24Z" fill="#414141"/>
<path d="M15 32C6.72867 32 0 24.8228 0 16C0 7.17725 6.72867 0 15 0C23.2713 0 30 7.17725 30 16C30 24.8228 23.2713 32 15 32ZM15 2C7.76253 2 1.875 8.28003 1.875 16C1.875 23.72 7.76253 30 15 30C22.2375 30 28.125 23.72 28.125 16C28.125 8.28003 22.2375 2 15 2Z" fill="#414141"/>
<path d="M15 19.6667C14.4825 19.6667 14.0625 19.2188 14.0625 18.6667V17.3201C14.0625 16.0508 14.8176 14.9133 15.94 14.4907C17.4337 13.9294 18.4376 12.2319 18.4376 11C18.4376 8.9773 16.8963 7.33325 15 7.33325C13.1037 7.33325 11.5624 8.9773 11.5624 11C11.5624 11.552 11.1424 12 10.6249 12C10.1074 12 9.68744 11.552 9.68744 11C9.68744 7.87598 12.0701 5.33325 15 5.33325C17.9299 5.33325 20.3126 7.87598 20.3126 11C20.3126 13.2241 18.6662 15.5855 16.5637 16.3774C16.1888 16.5173 15.9375 16.8972 15.9375 17.3213V18.6667C15.9375 19.2188 15.5175 19.6667 15 19.6667Z" fill="#414141"/>
</svg>
