<svg width="20" height="15" viewBox="0 0 20 15" fill="none" xmlns="http://www.w3.org/2000/svg">
<g clip-path="url(#clip0)">
<path d="M9.35148 14.9044C9.18961 15.0295 8.93163 15.0259 8.77526 14.8964C8.62275 14.77 8.62275 14.5698 8.77526 14.4435L17.4517 7.50164L8.77446 0.560466C8.61259 0.435374 8.60808 0.229016 8.76445 0.099493C8.92081 -0.0299997 9.17876 -0.0335751 9.34066 0.091486C9.34406 0.0941143 9.34739 0.0967731 9.35067 0.099493L18.3156 7.27147C18.4747 7.39877 18.4747 7.60512 18.3156 7.73245L9.35148 14.9044Z" fill="#009688"/>
<path d="M10.9814 7.73242L2.0165 14.9044C1.85463 15.0295 1.59665 15.0259 1.44028 14.8964C1.28778 14.77 1.28778 14.5698 1.44028 14.4434L10.1167 7.50161L1.43948 0.560466C1.27762 0.435374 1.27315 0.229016 1.42947 0.099493C1.58584 -0.0299997 1.84378 -0.0335751 2.00569 0.091486C2.00909 0.0941143 2.01241 0.0967731 2.0157 0.099493L10.9806 7.27147C11.1399 7.39858 11.1403 7.60494 10.9814 7.73242Z" fill="#009688"/>
<path d="M9.06296 0.00367355C8.83791 0.00333786 8.65514 0.149058 8.65472 0.329102C8.65453 0.415898 8.69763 0.499181 8.77445 0.560489L17.4517 7.50166L8.77445 14.4428C8.61809 14.5723 8.6226 14.7787 8.78446 14.9038C8.94239 15.0258 9.19274 15.0258 9.35063 14.9038L18.3156 7.73179C18.4747 7.6045 18.4747 7.39814 18.3156 7.27082L9.35067 0.098875C9.2743 0.0379038 9.17085 0.00367355 9.06296 0.00367355Z" fill="#656363"/>
<path d="M1.728 0.00366497C1.50295 0.00332928 1.32018 0.14905 1.31976 0.329092C1.31957 0.415889 1.36267 0.499172 1.43949 0.56048L10.1168 7.50165L1.43949 14.4428C1.28015 14.5703 1.28015 14.7769 1.43949 14.9044C1.59884 15.0319 1.85716 15.0319 2.01651 14.9044L10.9815 7.73242C11.1406 7.60513 11.1406 7.39877 10.9815 7.27145L2.01651 0.0995083C1.94007 0.0381699 1.83627 0.00366497 1.728 0.00366497Z" fill="#656363"/>
</g>
<defs>
<clipPath id="clip0">
<rect width="18.75" height="15" fill="white" transform="matrix(1 0 0 -1 0.5 15)"/>
</clipPath>
</defs>
</svg>
