<svg width="37" height="37" viewBox="0 0 37 37" fill="none" xmlns="http://www.w3.org/2000/svg">
<path d="M14.9503 4.68713e-07C14.7749 9.33751e-05 14.6052 0.0624833 14.4716 0.176045C14.3379 0.289607 14.2489 0.446958 14.2204 0.62004L13.5007 5.0268C12.6352 5.27857 11.8099 5.61828 11.0321 6.04141L7.39567 3.44418C7.25329 3.34252 7.07951 3.29457 6.90515 3.30886C6.73079 3.32315 6.56713 3.39874 6.4432 3.52223L3.56414 6.3984C3.44111 6.52152 3.36541 6.68406 3.35034 6.85746C3.33527 7.03087 3.38181 7.20403 3.48176 7.34653L6.03996 11.0061C5.61031 11.7884 5.26307 12.6184 5.00512 13.492L0.61715 14.2219C0.444597 14.2509 0.287925 14.3402 0.174943 14.4738C0.0619616 14.6074 -1.98296e-05 14.7768 1.21946e-06 14.9518V19.0218C-0.000314399 19.1957 0.0606448 19.3642 0.172179 19.4977C0.283714 19.6311 0.438696 19.7211 0.609923 19.7516L5.00078 20.5292C5.25734 21.4014 5.60237 22.2319 6.03274 23.0152L3.44274 26.6386C3.34107 26.7809 3.29313 26.9547 3.30742 27.1291C3.3217 27.3034 3.3973 27.4671 3.52078 27.591L6.3984 30.4701C6.52125 30.593 6.68342 30.6687 6.85651 30.684C7.02959 30.6994 7.20255 30.6533 7.34508 30.5539L11.0118 27.987C11.7919 28.4127 12.6193 28.7549 13.4877 29.0089L14.2204 33.4214C14.2492 33.5942 14.3383 33.7512 14.472 33.8645C14.6056 33.9778 14.7751 34.04 14.9503 34.04H19.0203C19.1945 34.0403 19.3631 33.9791 19.4966 33.8673C19.6301 33.7555 19.7199 33.6001 19.7502 33.4286L20.535 28.9988C21.3998 28.7409 22.2233 28.3936 22.9993 27.9654L26.6906 30.5554C26.8331 30.6553 27.0062 30.7018 27.1796 30.6868C27.353 30.6717 27.5156 30.596 27.6387 30.473L30.5163 27.5925C30.6403 27.4682 30.7161 27.3039 30.7302 27.1289C30.7442 26.9539 30.6956 26.7796 30.5929 26.6371L27.961 22.9834C28.3818 22.2111 28.7209 21.3926 28.9727 20.5336L33.4257 19.7531C33.5972 19.7228 33.7526 19.633 33.8644 19.4995C33.9762 19.366 34.0374 19.1974 34.0371 19.0232V14.9532C34.037 14.7778 33.9746 14.6081 33.8611 14.4745C33.7475 14.3408 33.5902 14.2518 33.4171 14.2233L28.9713 13.4963C28.7177 12.6383 28.3778 11.8213 27.9567 11.0494L30.5525 7.35086C30.6524 7.20837 30.6989 7.0352 30.6839 6.8618C30.6688 6.6884 30.5931 6.52586 30.4701 6.40274L27.591 3.52512C27.4667 3.40111 27.3024 3.32531 27.1274 3.31128C26.9524 3.29725 26.7781 3.34589 26.6357 3.44852L22.992 6.06887C22.2157 5.64236 21.3917 5.29692 20.5249 5.04125L19.7502 0.612813C19.7202 0.441055 19.6306 0.285398 19.497 0.173285C19.3635 0.0611726 19.1947 -0.000195672 19.0203 4.68713e-07H14.9503ZM15.5805 1.48H18.3988L19.1359 5.68731C19.1605 5.82842 19.2254 5.95938 19.3229 6.06431C19.4204 6.16923 19.5462 6.24362 19.6852 6.27844C20.7674 6.54814 21.7839 6.97565 22.7116 7.53731C22.8357 7.61246 22.9791 7.64952 23.124 7.64386C23.2689 7.63821 23.409 7.5901 23.5268 7.50551L26.9898 5.01668L28.9829 7.00977L26.5171 10.5233C26.4348 10.6405 26.3882 10.7791 26.3831 10.9223C26.378 11.0654 26.4145 11.207 26.4882 11.3298C27.0443 12.2555 27.4661 13.2655 27.7355 14.3418C27.7706 14.482 27.846 14.6089 27.9523 14.7067C28.0586 14.8046 28.1913 14.8692 28.3339 14.8925L32.5571 15.5834V18.4017L28.3252 19.1446C28.184 19.1696 28.0531 19.2351 27.9484 19.3331C27.8437 19.4311 27.7698 19.5575 27.7355 19.6967C27.4692 20.7717 27.0472 21.7817 26.4911 22.7073C26.4165 22.8313 26.3799 22.9745 26.3858 23.1191C26.3917 23.2638 26.4399 23.4035 26.5244 23.521L29.0248 26.9912L27.0317 28.9857L23.5239 26.5244C23.4061 26.4419 23.2668 26.3955 23.1231 26.3909C22.9794 26.3862 22.8374 26.4236 22.7145 26.4984C21.7914 27.06 20.7739 27.4895 19.6953 27.763C19.557 27.7979 19.4317 27.8719 19.3346 27.9763C19.2374 28.0806 19.1724 28.2109 19.1475 28.3513L18.4003 32.56H15.5776L14.8809 28.37C14.8572 28.2275 14.7923 28.095 14.6942 27.989C14.5961 27.8829 14.4691 27.8079 14.3288 27.7731C13.2459 27.5062 12.2249 27.0793 11.2908 26.5186C11.1681 26.4452 11.0268 26.4088 10.884 26.4139C10.7411 26.4191 10.6028 26.4655 10.4857 26.5475L7.00543 28.9857L5.0109 26.9883L7.47082 23.5499C7.55489 23.4321 7.60257 23.2922 7.60797 23.1476C7.61336 23.003 7.57623 22.86 7.50117 22.7362C6.93432 21.7996 6.50561 20.7786 6.23508 19.6909C6.20047 19.5524 6.12651 19.4268 6.02214 19.3294C5.91776 19.2319 5.78742 19.1668 5.64684 19.1417L1.48 18.4017V15.579L5.64395 14.8867C5.78629 14.8631 5.91863 14.7984 6.02468 14.7006C6.13074 14.6027 6.20588 14.476 6.24086 14.3361C6.51372 13.2446 6.94222 12.2239 7.50695 11.2893C7.58143 11.1666 7.61862 11.025 7.614 10.8815C7.60938 10.7381 7.56315 10.5991 7.48094 10.4814L5.04992 7.00688L7.0459 5.01234L10.4959 7.47805C10.6132 7.56174 10.7525 7.60933 10.8965 7.61498C11.0406 7.62063 11.1831 7.58409 11.3067 7.50985C12.2359 6.95178 13.2593 6.52834 14.3433 6.26254C14.4842 6.22785 14.6118 6.15249 14.7102 6.04585C14.8086 5.9392 14.8735 5.80597 14.8968 5.66274L15.5805 1.48ZM17.0186 11.1C13.7578 11.1 11.0986 13.7592 11.0986 17.02C11.0986 20.2808 13.7578 22.94 17.0186 22.94C20.2793 22.94 22.9386 20.2808 22.9386 17.02C22.9386 13.7592 20.2793 11.1 17.0186 11.1ZM17.0186 12.58C19.4795 12.58 21.4586 14.5591 21.4586 17.02C21.4586 19.4809 19.4795 21.46 17.0186 21.46C14.5576 21.46 12.5786 19.4809 12.5786 17.02C12.5786 14.5591 14.5576 12.58 17.0186 12.58Z" fill="#414141"/>
</svg>
