<svg width="30" height="30" viewBox="0 0 30 30" fill="none" xmlns="http://www.w3.org/2000/svg">
<path d="M26.5552 1.20762C24.9423 -0.402541 22.3305 -0.402541 20.7176 1.20762L19.2564 2.67702L3.70144 18.2252L3.66839 18.2585C3.66038 18.2665 3.66038 18.275 3.65186 18.275C3.63533 18.2998 3.61053 18.3244 3.59426 18.3491C3.59426 18.3574 3.58574 18.3574 3.58574 18.3657C3.56921 18.3905 3.56121 18.407 3.54442 18.4318C3.53641 18.4401 3.53641 18.4481 3.52815 18.4566C3.51988 18.4814 3.51162 18.4979 3.5031 18.5227C3.5031 18.5307 3.49509 18.5307 3.49509 18.5392L0.0439196 28.9183C-0.0573196 29.2138 0.0196429 29.541 0.242007 29.7603C0.398257 29.9145 0.609 30.0008 0.828265 30C0.917882 29.9984 1.00672 29.9845 1.09247 29.9587L11.4625 26.4989C11.4705 26.4989 11.4705 26.4989 11.479 26.4909C11.5051 26.4831 11.5302 26.472 11.5532 26.4576C11.5596 26.4568 11.5653 26.454 11.5699 26.4496C11.5945 26.433 11.6275 26.4163 11.6523 26.3997C11.6769 26.3834 11.7019 26.3587 11.7267 26.3421C11.735 26.3336 11.743 26.3336 11.743 26.3256C11.7515 26.3173 11.768 26.3093 11.7763 26.2925L28.7925 9.27473C30.4025 7.66172 30.4025 5.04965 28.7925 3.43691L26.5552 1.20762ZM11.1983 24.5584L5.45195 18.8117L19.8344 4.42796L25.5807 10.1746L11.1983 24.5584ZM4.64255 20.3393L9.66268 25.3596L2.12449 27.8696L4.64255 20.3393ZM27.6285 8.11863L26.7532 9.00223L21.0066 3.25507L21.8904 2.37173C22.8571 1.40573 24.424 1.40573 25.3909 2.37173L27.6365 4.61754C28.596 5.5887 28.5923 7.15212 27.6285 8.11863Z" fill="#414141"/>
</svg>
