<svg width="30" height="30" viewBox="0 0 30 30" fill="none" xmlns="http://www.w3.org/2000/svg">
<path d="M19.3553 17.0632L11.1474 11.7302C10.8938 11.5655 10.578 11.5612 10.3207 11.7189C10.0634 11.8766 9.9043 12.1721 9.9043 12.4924V23.1584C9.9043 23.4786 10.0634 23.7741 10.3207 23.9319C10.5775 24.0893 10.8933 24.0856 11.1474 23.9205L19.3553 18.5875C19.6026 18.4269 19.7539 18.1376 19.7539 17.8254C19.7539 17.5132 19.6026 17.2239 19.3553 17.0632ZM11.5459 21.5885V14.0622L17.3377 17.8254L11.5459 21.5885Z" fill="#414141"/>
<path d="M27.1958 0.9375H0.820798C0.367498 0.9375 0 1.33546 0 1.82634V28.4914C0 28.9823 0.367498 29.3802 0.820798 29.3802H27.1958C27.6491 29.3802 28.0166 28.9823 28.0166 28.4914C28.0166 27.7892 28.0166 2.09121 28.0166 1.82634C28.0166 1.34026 27.649 0.9375 27.1958 0.9375ZM16.4707 6.27051L20.8483 2.71517H24.717L20.3029 6.27051H16.4707ZM9.90429 6.27051L14.2819 2.71517H18.1123L13.7347 6.27051H9.90429ZM3.29961 6.27051L7.71369 2.71517H11.5459L7.1683 6.27051H3.29961ZM26.375 3.59524V6.27051H23.0535L26.375 3.59524ZM4.96309 2.71517L1.6416 5.39045V2.71517H4.96309ZM26.375 27.6026H1.6416V8.04818H26.375V27.6026Z" fill="#414141"/>
</svg>
